<?xml version="1.0" encoding="UTF-8"?>
<svg id="Capa_1" xmlns="http://www.w3.org/2000/svg" version="1.1" viewBox="0 0 800 182.76">
  <!-- Generator: Adobe Illustrator 30.4.0, SVG Export Plug-In . SVG Version: 2.1.4 Build 226)  -->
  <defs>
    <style>
      .st0 {
        fill: #cacaca;
      }
    </style>
  </defs>
  <g>
    <path class="st0" d="M29.03,108.98c-4.4,0-13.21-.29-17.06-.29-2.48,0-8.12.15-11.97.29.69-12.06,1.1-30.8,1.1-43.88v-14.53c0-13.08-.41-28.92-1.1-40.98,4.4.15,9.36.29,12.52.29,2.34,0,5.64-.14,9.08-.29,3.44,0,7.15-.15,10.04-.15,13.62,0,28.07,3.2,28.07,20.63,0,14.24-8.53,22.52-22.98,25.43v.29c16.37,1.31,26.83,7.85,26.83,24.41,0,23.25-18.57,28.77-34.53,28.77ZM23.8,15.98c-1.51,0-4.4.15-6.19.58-.41,8.57-.55,17.87-.55,26.44v9.88h5.64c10.87,0,20.36-4.07,20.36-19.47s-10.32-17.44-19.26-17.44ZM22.01,59.72h-4.95v10.61c0,8.86.14,24.41.55,31.24,2.75.44,5.5.73,8.81.73,10.04,0,19.4-5.81,19.4-22.52,0-15.84-8.26-20.05-23.8-20.05Z"/>
    <path class="st0" d="M174.08,109.56c-7.84,0-11.56-4.07-12.25-10.03-3.71,5.09-10.18,10.46-19.81,10.46s-18.57-6.1-18.57-19.32c0-11.91,6.74-17.73,19.26-20.34,16.78-3.34,19.12-4.79,19.12-9.01v-1.6c0-8.57-3.44-14.97-13.76-14.97-7.29,0-12.66,4.94-14.03,14.53h-2.75c-.55-5.23-1.79-10.17-2.61-12.93,4.95-5.23,15-8.72,24.08-8.72,20.91,0,24.63,11.33,24.63,26.15,0,6.83-.69,21.07-.69,28.48,0,6.97,1.51,11.48,7.29,11.48.96,0,1.79,0,2.48-.29v3.63c-3.03,1.45-7.98,2.47-12.38,2.47ZM138.58,88.64c0,9.15,4.68,12.64,10.46,12.64,5.37,0,11.01-4.07,12.38-9.59.41-4.94.55-13.66.55-20.05-16.51,2.91-23.39,6.25-23.39,17Z"/>
    <path class="st0" d="M249.46,108.69c-3.03,0-6.19.15-8.39.29.55-9.01.83-25.72.83-36.62v-4.21c0-9.44-1.65-20.2-12.66-20.2s-16.23,8.14-16.23,21.8v9.88c0,8.72.28,21.07.96,29.35-2.48-.15-5.64-.29-8.53-.29s-6.19.15-8.53.29c.69-8.14.96-24.27.96-32.98v-6.39c0-8.72-.28-20.2-.96-29.79,2.75.15,5.5.29,8.53.29,2.75,0,5.78-.15,7.84-.29-.41,3.34-.55,7.12-.55,10.9h.55c4.82-7.41,12.52-12.35,21.88-12.35,17.61,0,22.29,11.19,22.29,25.28,0,4.94-.41,11.62-.41,18.6v1.74c0,6.39.28,19.18.69,24.99-2.2-.15-5.37-.29-8.26-.29Z"/>
    <path class="st0" d="M330.52,108.69c-2.89,0-5.78.15-7.98.29.28-4.07.41-8.28.41-12.35h-.28c-2.75,6.1-9.49,13.66-22.98,13.66-19.54,0-27.79-17.73-27.79-36.03s9.49-36.33,30.82-36.33c11.14,0,17.06,5.23,19.95,10.61h.28v-2.91c0-13.08-.28-34.15-.96-45.63,2.34.15,5.37.29,8.39.29s6.05-.15,8.53-.29c-.55,11.48-.96,35.74-.96,48.82v16.27c0,13.22.28,32.55.96,43.88-2.48-.15-5.5-.29-8.39-.29ZM306.72,45.04c-11.83,0-17.89,12.5-17.89,29.21,0,14.39,5.37,28.04,17.2,28.04s17.47-12.5,17.47-28.48c0-14.82-3.99-28.77-16.78-28.77Z"/>
    <path class="st0" d="M371.8,110.58c-7.15,0-14.86-2.03-18.57-4.21.28-3.49,1.38-9.44,2.75-14.53h2.48c1.93,8.28,7.84,12.5,14.86,12.5s12.93-3.63,12.93-11.91c0-7.56-4.68-10.03-14.58-13.37-8.39-2.91-15.96-7.12-15.96-19.62,0-16.42,14.03-21.51,24.35-21.51,6.88,0,14.31,1.6,17.75,3.49-1.1,2.91-2.61,8.86-3.44,13.51h-2.61c-1.24-6.39-4.27-11.19-12.11-11.19-5.64,0-11.14,3.2-11.14,10.32,0,6.54,4.13,9.3,12.11,11.77,11.97,3.78,18.71,9.01,18.71,20.2,0,17.58-13.62,24.56-27.52,24.56Z"/>
    <path class="st0" d="M465.63,108.69c-2.89,0-5.78.15-7.98.29.28-3.78.41-7.41.41-11.04h-.55c-4.68,7.41-12.66,12.5-21.87,12.5-17.61,0-22.15-11.19-22.15-25.28,0-4.8.41-11.62.41-18.6v-1.74c0-6.39-.28-19.18-.69-24.99,2.2.15,5.37.29,8.39.29s5.92-.15,8.25-.29c-.41,9.01-.83,25.72-.83,36.62v4.21c0,9.44,1.65,20.2,12.38,20.2s16.51-8.43,16.51-21.94v-9.74c0-8.72-.28-21.07-.96-29.35,2.48.15,5.64.29,8.67.29s6.05-.15,8.53-.29c-.69,8.14-.96,24.27-.96,32.98v6.39c0,8.72.28,20.2.96,29.79-2.75-.15-5.64-.29-8.53-.29Z"/>
    <path class="st0" d="M585.68,108.69c-2.89,0-6.19.15-8.53.29.55-9.3.96-25.72.96-36.62v-4.21c0-9.44-1.24-20.2-12.66-20.2-8.81,0-15,8.14-15,21.8v6.25c0,8.72.14,24.41.96,32.98-2.2-.15-5.5-.29-8.39-.29s-6.19.15-8.25.29c.69-8.28.83-24.27.83-32.98v-9.44c0-9.44-1.65-18.6-11.83-18.6-9.36,0-15.41,8.14-15.41,21.8v9.88c0,8.72.28,21.07.96,29.35-2.34-.15-5.5-.29-8.39-.29s-6.19.15-8.67.29c.69-8.14,1.1-24.27,1.1-32.98v-6.39c0-8.86-.28-19.91-1.1-29.79,2.75.15,5.64.29,8.53.29s5.78-.15,7.84-.29c-.28,3.34-.41,7.12-.41,11.04h.55c4.82-7.56,12.38-12.5,21.88-12.5s16.23,4.94,18.57,13.66c4.68-7.85,13.07-13.66,22.43-13.66,17.2,0,21.88,11.62,21.88,25.43,0,4.94-.28,11.48-.28,18.6v1.6c0,6.39.28,18.89.69,24.99-2.2-.15-5.23-.29-8.25-.29Z"/>
    <path class="st0" d="M703.73,108.69c-2.89,0-6.19.15-8.53.29.55-9.3.96-25.72.96-36.62v-4.21c0-9.44-1.24-20.2-12.66-20.2-8.81,0-15,8.14-15,21.8v6.25c0,8.72.14,24.41.96,32.98-2.2-.15-5.5-.29-8.39-.29s-6.19.15-8.25.29c.69-8.28.83-24.27.83-32.98v-9.44c0-9.44-1.65-18.6-11.83-18.6-9.36,0-15.41,8.14-15.41,21.8v9.88c0,8.72.28,21.07.96,29.35-2.34-.15-5.5-.29-8.39-.29s-6.19.15-8.67.29c.69-8.14,1.1-24.27,1.1-32.98v-6.39c0-8.86-.28-19.91-1.1-29.79,2.75.15,5.64.29,8.53.29s5.78-.15,7.84-.29c-.28,3.34-.41,7.12-.41,11.04h.55c4.82-7.56,12.38-12.5,21.88-12.5s16.23,4.94,18.57,13.66c4.68-7.85,13.07-13.66,22.43-13.66,17.2,0,21.88,11.62,21.88,25.43,0,4.94-.28,11.48-.28,18.6v1.6c0,6.39.28,18.89.69,24.99-2.2-.15-5.23-.29-8.25-.29Z"/>
    <path class="st0" d="M737.96,24.27c-4.95,0-8.81-4.36-8.81-9.44s3.85-9.44,8.81-9.44,8.94,4.36,8.94,9.44-3.99,9.44-8.94,9.44ZM737.96,108.69c-2.89,0-6.19.15-8.53.29.69-7.99.96-24.27.96-32.98v-6.39c0-8.72-.28-21.51-.96-29.79,2.34.15,5.64.29,8.53.29s6.19-.15,8.53-.29c-.69,8.57-.96,21.07-.96,29.79v6.39c0,8.72.28,24.7.96,32.98-2.34-.15-5.5-.29-8.53-.29Z"/>
    <path class="st0" d="M782.53,109.85c-10.87,0-15.41-6.68-15.41-18.02,0-10.61.83-29.21.83-45.33h-10.46v-6.25h10.59c0-3.49,0-9.3-.28-14.82,3.99-1.31,11.01-3.92,15.27-6.54l1.24.58c-.55,5.81-1.24,15.11-1.24,20.78h16.37v6.25h-16.51c-.41,12.21-.83,28.19-.83,39.09,0,10.32,1.51,16.27,9.36,16.27,2.89,0,5.78-.58,7.57-1.45l.55.29.41,4.36c-4.54,2.91-11.28,4.8-17.47,4.8Z"/>
    <path class="st0" d="M109.54,51.44c1.88,0,3.85.44,5.5,1.25l1.13-.15c1.29-5.14,2.82-9.6,3.89-12.39l-.28-.73c-1.37-.3-2.96-.48-4.74-.48-8.53,0-15.13,5.67-19.81,15.69h-.55c0-5.09.41-11.48.83-14.82-1.65.15-4.68.29-7.7.29s-6.19-.15-8.53-.29c.83,9.15,1.1,21.07,1.1,29.79v6.39c0,8.72-.41,24.85-1.1,32.98,2.48-.15,5.64-.29,8.67-.29s6.05.15,8.39.29c-.69-8.28-.96-21.94-.96-30.8v-5.09c0-12.5,4.4-21.65,14.17-21.65Z"/>
  </g>
  <g>
    <path class="st0" d="M7.15,156.71v9.83h12.71v3.32H7.15v12.34h-3.52v-28.8h17.07v3.32H7.15Z"/>
    <path class="st0" d="M54.04,167.8c0,9.18-4.79,14.96-12.36,14.96s-12.36-5.78-12.36-14.96,4.78-14.97,12.36-14.97,12.36,5.78,12.36,14.97ZM33,167.8c0,7.07,3.33,11.57,8.69,11.57s8.69-4.49,8.69-11.57-3.37-11.57-8.69-11.57-8.69,4.49-8.69,11.57Z"/>
    <path class="st0" d="M88.58,167.8c0,9.18-4.79,14.96-12.36,14.96s-12.36-5.78-12.36-14.96,4.78-14.97,12.36-14.97,12.36,5.78,12.36,14.97ZM67.53,167.8c0,7.07,3.33,11.57,8.69,11.57s8.69-4.49,8.69-11.57-3.37-11.57-8.69-11.57-8.69,4.49-8.69,11.57Z"/>
    <path class="st0" d="M107.92,153.39c9.03,0,14.12,5.18,14.12,14.4s-5.09,14.4-14.12,14.4h-8.3v-28.8h8.3ZM103.14,178.88h4.75c6.81,0,10.45-3.89,10.45-11.08s-3.64-11.08-10.45-11.08h-4.75v22.17Z"/>
    <path class="st0" d="M155.89,153.39c9.03,0,14.12,5.18,14.12,14.4s-5.09,14.4-14.12,14.4h-8.3v-28.8h8.3ZM151.11,178.88h4.75c6.81,0,10.45-3.89,10.45-11.08s-3.64-11.08-10.45-11.08h-4.75v22.17Z"/>
    <path class="st0" d="M184.53,156.71v9.1h13.24v3.28h-13.24v9.79h14.47v3.32h-17.99v-28.8h17.57v3.32h-14.05Z"/>
    <path class="st0" d="M227.18,162.29h-3.56c0-4.25-2.22-6.27-6.24-6.27-3.37,0-5.4,1.74-5.4,4.49,0,3.08,2.1,3.97,6.58,5.14,5.17,1.34,9.26,2.71,9.26,8.62,0,5.18-3.83,8.49-9.76,8.49-6.35,0-10.18-3.48-10.18-10.11h3.64c0,4.74,2.49,6.92,6.58,6.92s6.09-1.9,6.09-5.1-2.26-4-6.66-5.18c-5.24-1.37-9.15-2.75-9.15-8.53,0-4.65,3.48-7.93,9.03-7.93,6.51,0,9.76,3.23,9.76,9.47Z"/>
    <path class="st0" d="M239.09,182.19v-28.8h3.52v28.8h-3.52Z"/>
    <path class="st0" d="M276.8,162.05h-3.75c-.61-3.68-3.14-5.82-7.08-5.82-5.36,0-8.65,4.41-8.65,11.65s3.18,11.65,8.38,11.65c4.44,0,7.69-2.67,7.73-9.42h-7.5v-3.19h10.87v15.29h-3.14v-3.96h-.08c-1.45,2.75-4.71,4.49-8.57,4.49-6.96,0-11.36-5.62-11.36-14.84s4.71-15.05,12.32-15.05c6.24,0,10.33,3.6,10.83,9.22Z"/>
    <path class="st0" d="M305.82,182.19l-6.47-12.42c-2.26-4.29-4.48-8.62-6.58-12.9h-.08c.08,4.61.12,9.19.12,13.79v11.53h-3.44v-28.8h5.17l6.51,12.42c2.22,4.29,4.44,8.62,6.58,12.9h.08c-.08-4.61-.12-9.18-.12-13.79v-11.53h3.44v28.8h-5.2Z"/>
    <path class="st0" d="M348.16,156.71v25.48h-3.56v-25.48h-9.3v-3.32h22.16v3.32h-9.3Z"/>
    <path class="st0" d="M383.92,182.19v-13.31h-13.89v13.31h-3.52v-28.8h3.52v12.22h13.89v-12.22h3.56v28.8h-3.56Z"/>
    <path class="st0" d="M400.46,182.19v-28.8h3.52v28.8h-3.52Z"/>
    <path class="st0" d="M433.46,182.19l-6.47-12.42c-2.26-4.29-4.48-8.62-6.58-12.9h-.08c.08,4.61.12,9.19.12,13.79v11.53h-3.44v-28.8h5.17l6.51,12.42c2.22,4.29,4.44,8.62,6.58,12.9h.08c-.08-4.61-.12-9.18-.12-13.79v-11.53h3.44v28.8h-5.2Z"/>
    <path class="st0" d="M471.78,182.19h-4.71l-11.82-14.16h-.08v14.16h-3.52v-28.8h3.52v12.98h.08l10.98-12.98h4.44l-11.9,13.71,13.01,15.09Z"/>
    <path class="st0" d="M484.07,156.71v9.1h13.24v3.28h-13.24v9.79h14.47v3.32h-17.99v-28.8h17.57v3.32h-14.05Z"/>
    <path class="st0" d="M518.61,153.39c6.58,0,9.57,2.91,9.57,7.81,0,3.68-2.07,6.43-5.2,7.2v.08c1.99.65,2.87,1.86,4.1,5.42l2.79,8.29h-3.83l-2.49-7.6c-1.11-3.44-2.37-4.53-5.28-4.53h-4.79v12.14h-3.52v-28.8h8.65ZM513.48,166.91h5.09c4.25,0,6.01-2.31,6.01-5.42,0-3.36-2.26-4.89-6.24-4.89h-4.86v10.31Z"/>
    <path class="st0" d="M557.35,162.29h-3.56c0-4.25-2.22-6.27-6.24-6.27-3.37,0-5.4,1.74-5.4,4.49,0,3.08,2.1,3.97,6.58,5.14,5.17,1.34,9.26,2.71,9.26,8.62,0,5.18-3.83,8.49-9.76,8.49-6.35,0-10.18-3.48-10.18-10.11h3.64c0,4.74,2.49,6.92,6.58,6.92s6.09-1.9,6.09-5.1-2.26-4-6.66-5.18c-5.24-1.37-9.15-2.75-9.15-8.53,0-4.65,3.48-7.93,9.03-7.93,6.51,0,9.76,3.23,9.76,9.47Z"/>
  </g>
</svg>