<?xml version="1.0" encoding="UTF-8"?>
<svg id="Capa_1" xmlns="http://www.w3.org/2000/svg" xmlns:xlink="http://www.w3.org/1999/xlink" version="1.1" viewBox="0 0 1416 195.72">
  <!-- Generator: Adobe Illustrator 30.4.0, SVG Export Plug-In . SVG Version: 2.1.4 Build 226)  -->
  <defs>
    <style>
      .st0 {
        fill: none;
      }

      .st1 {
        clip-path: url(#clippath);
      }

      .st2 {
        fill: #cacaca;
      }
    </style>
    <clipPath id="clippath">
      <rect class="st0" width="1416" height="195.72"/>
    </clipPath>
  </defs>
  <g class="st1">
    <g>
      <path class="st2" d="M51.38,192.89c-7.8,0-23.38-.51-30.2-.51-4.38,0-14.37.26-21.19.51,1.22-21.35,1.95-54.52,1.95-77.67v-25.72c0-23.15-.73-51.18-1.95-72.52,7.79.26,16.56.51,22.16.51,4.14,0,9.98-.26,16.07-.51,6.09,0,12.66-.26,17.78-.26,24.11,0,49.68,5.66,49.68,36.52,0,25.21-15.09,39.87-40.67,45.01v.51c28.98,2.32,47.48,13.89,47.48,43.21,0,41.15-32.87,50.93-61.12,50.93ZM42.13,28.29c-2.68,0-7.8.26-10.96,1.03-.73,15.17-.97,31.63-.97,46.81v17.49h9.98c19.24,0,36.04-7.2,36.04-34.46s-18.27-30.86-34.09-30.86ZM38.96,105.7h-8.77v18.77c0,15.69.24,43.21.97,55.3,4.87.77,9.74,1.28,15.58,1.28,17.78,0,34.34-10.29,34.34-39.87,0-28.03-14.61-35.49-42.13-35.49"/>
      <path class="st2" d="M308.11,193.92c-13.88,0-20.45-7.2-21.67-17.75-6.57,9-18.02,18.52-35.07,18.52s-32.87-10.8-32.87-34.2c0-21.09,11.93-31.37,34.1-36.01,29.71-5.92,33.85-8.48,33.85-15.94v-2.83c0-15.17-6.09-26.49-24.35-26.49-12.91,0-22.4,8.74-24.84,25.72h-4.87c-.97-9.26-3.16-18-4.62-22.89,8.77-9.26,26.54-15.43,42.62-15.43,37.02,0,43.59,20.06,43.59,46.29,0,12.09-1.22,37.29-1.22,50.41,0,12.34,2.68,20.32,12.91,20.32,1.7,0,3.16,0,4.39-.51v6.43c-5.36,2.57-14.12,4.37-21.92,4.37M245.28,156.89c0,16.2,8.28,22.38,18.5,22.38,9.5,0,19.48-7.2,21.92-16.98.73-8.74.97-24.17.97-35.49-29.23,5.14-41.4,11.06-41.4,30.09"/>
      <path class="st2" d="M441.55,192.37c-5.36,0-10.96.26-14.86.51.97-15.94,1.46-45.52,1.46-64.81v-7.46c0-16.71-2.92-35.75-22.4-35.75s-28.74,14.41-28.74,38.58v17.49c0,15.43.49,37.29,1.7,51.95-4.39-.26-9.99-.51-15.1-.51s-10.96.26-15.1.51c1.21-14.41,1.71-42.95,1.71-58.38v-11.32c0-15.43-.49-35.75-1.71-52.72,4.87.26,9.74.51,15.1.51,4.87,0,10.23-.26,13.88-.51-.73,5.92-.98,12.6-.98,19.29h.98c8.52-13.12,22.16-21.86,38.72-21.86,31.17,0,39.45,19.8,39.45,44.75,0,8.74-.73,20.58-.73,32.92v3.09c0,11.32.49,33.95,1.22,44.24-3.9-.26-9.5-.51-14.61-.51"/>
      <path class="st2" d="M585.02,192.37c-5.11,0-10.23.26-14.12.51.49-7.2.73-14.66.73-21.86h-.49c-4.87,10.8-16.8,24.18-40.67,24.18-34.58,0-49.19-31.37-49.19-63.78s16.8-64.3,54.55-64.3c19.73,0,30.2,9.26,35.31,18.78h.49v-5.14c0-23.14-.49-60.44-1.7-80.75,4.14.26,9.49.51,14.86.51s10.72-.26,15.09-.51c-.97,20.31-1.7,63.27-1.7,86.42v28.81c0,23.4.49,57.61,1.7,77.67-4.38-.26-9.74-.51-14.86-.51M542.89,79.73c-20.94,0-31.66,22.12-31.66,51.7,0,25.46,9.5,49.63,30.44,49.63s30.92-22.12,30.92-50.4c0-26.23-7.06-50.92-29.71-50.92Z"/>
      <path class="st2" d="M658.09,195.72c-12.66,0-26.3-3.6-32.87-7.46.49-6.18,2.44-16.71,4.87-25.72h4.38c3.41,14.66,13.88,22.12,26.3,22.12s22.89-6.43,22.89-21.09c0-13.38-8.28-17.75-25.81-23.66-14.86-5.14-28.25-12.6-28.25-34.72,0-29.06,24.84-38.06,43.11-38.06,12.17,0,25.33,2.83,31.41,6.18-1.95,5.14-4.62,15.69-6.08,23.91h-4.62c-2.19-11.32-7.55-19.8-21.43-19.8-9.98,0-19.73,5.66-19.73,18.26,0,11.57,7.31,16.46,21.43,20.83,21.19,6.69,33.12,15.94,33.12,35.75,0,31.12-24.11,43.46-48.7,43.46"/>
      <path class="st2" d="M824.16,192.37c-5.11,0-10.23.26-14.12.51.49-6.69.73-13.12.73-19.54h-.97c-8.28,13.11-22.4,22.12-38.72,22.12-31.17,0-39.21-19.8-39.21-44.75,0-8.48.73-20.57.73-32.92v-3.09c0-11.32-.49-33.95-1.21-44.24,3.9.26,9.5.51,14.86.51s10.47-.26,14.61-.51c-.73,15.94-1.46,45.52-1.46,64.81v7.46c0,16.71,2.92,35.75,21.92,35.75s29.22-14.92,29.22-38.83v-17.24c0-15.43-.49-37.29-1.71-51.95,4.39.26,9.98.51,15.34.51s10.72-.26,15.09-.51c-1.21,14.4-1.7,42.95-1.7,58.38v11.32c0,15.43.49,35.75,1.7,52.72-4.87-.26-9.98-.51-15.09-.51"/>
      <path class="st2" d="M1036.65,192.37c-5.11,0-10.96.26-15.09.51.97-16.46,1.7-45.52,1.7-64.81v-7.46c0-16.71-2.19-35.75-22.4-35.75-15.58,0-26.54,14.41-26.54,38.58v11.06c0,15.43.24,43.21,1.7,58.38-3.9-.26-9.74-.51-14.86-.51s-10.96.26-14.61.51c1.22-14.66,1.46-42.95,1.46-58.38v-16.72c0-16.71-2.92-32.92-20.94-32.92-16.56,0-27.27,14.41-27.27,38.58v17.49c0,15.43.49,37.29,1.7,51.95-4.14-.26-9.74-.51-14.86-.51s-10.96.26-15.34.51c1.21-14.41,1.95-42.95,1.95-58.38v-11.32c0-15.69-.49-35.23-1.95-52.72,4.87.26,9.98.51,15.09.51s10.23-.26,13.88-.51c-.49,5.92-.73,12.6-.73,19.54h.98c8.52-13.38,21.92-22.12,38.72-22.12s28.74,8.74,32.87,24.17c8.28-13.89,23.13-24.17,39.69-24.17,30.44,0,38.71,20.57,38.71,45.01,0,8.74-.48,20.32-.48,32.92v2.83c0,11.32.48,33.43,1.21,44.24-3.9-.26-9.26-.51-14.61-.51"/>
      <path class="st2" d="M1245.6,192.37c-5.11,0-10.96.26-15.09.51.97-16.46,1.7-45.52,1.7-64.81v-7.46c0-16.71-2.19-35.75-22.4-35.75-15.58,0-26.54,14.41-26.54,38.58v11.06c0,15.43.24,43.21,1.7,58.38-3.9-.26-9.74-.51-14.86-.51s-10.96.26-14.61.51c1.21-14.66,1.46-42.95,1.46-58.38v-16.72c0-16.71-2.92-32.92-20.94-32.92-16.56,0-27.27,14.41-27.27,38.58v17.49c0,15.43.49,37.29,1.7,51.95-4.14-.26-9.74-.51-14.86-.51s-10.96.26-15.33.51c1.21-14.41,1.94-42.95,1.94-58.38v-11.32c0-15.69-.49-35.23-1.94-52.72,4.86.26,9.98.51,15.09.51s10.23-.26,13.88-.51c-.49,5.92-.73,12.6-.73,19.54h.97c8.53-13.38,21.92-22.12,38.72-22.12s28.74,8.74,32.87,24.17c8.28-13.89,23.14-24.17,39.69-24.17,30.45,0,38.72,20.57,38.72,45.01,0,8.74-.49,20.32-.49,32.92v2.83c0,11.32.49,33.43,1.22,44.24-3.9-.26-9.26-.51-14.61-.51"/>
      <path class="st2" d="M1306.19,42.95c-8.76,0-15.58-7.72-15.58-16.71s6.82-16.72,15.58-16.72,15.83,7.72,15.83,16.72-7.06,16.71-15.83,16.71ZM1306.19,192.37c-5.11,0-10.96.26-15.09.51,1.21-14.15,1.7-42.95,1.7-58.38v-11.32c0-15.43-.49-38.06-1.7-52.72,4.14.26,9.98.51,15.09.51s10.96-.26,15.1-.51c-1.22,15.17-1.71,37.29-1.71,52.72v11.32c0,15.43.49,43.72,1.71,58.38-4.14-.26-9.74-.51-15.1-.51Z"/>
      <path class="st2" d="M1385.07,194.43c-19.24,0-27.27-11.83-27.27-31.89,0-18.78,1.46-51.7,1.46-80.24h-18.51v-11.06h18.75c0-6.18,0-16.46-.49-26.23,7.06-2.32,19.48-6.94,27.03-11.57l2.19,1.03c-.97,10.29-2.19,26.75-2.19,36.78h28.98v11.06h-29.22c-.73,21.61-1.46,49.89-1.46,69.18,0,18.26,2.69,28.81,16.57,28.81,5.11,0,10.22-1.03,13.39-2.58l.97.51.74,7.72c-8.04,5.14-19.97,8.48-30.93,8.48"/>
      <path class="st2" d="M193.89,91.04c3.32,0,6.82.77,9.74,2.22l2-.27c2.29-9.09,4.98-16.98,6.88-21.93l-.49-1.28c-2.42-.53-5.24-.85-8.39-.85-15.09,0-26.79,10.03-35.06,27.77h-.98c0-9,.73-20.31,1.46-26.23-2.92.26-8.28.52-13.63.52s-10.96-.26-15.09-.52c1.46,16.2,1.95,37.29,1.95,52.73v11.32c0,15.43-.73,43.98-1.95,58.38,4.38-.26,9.98-.52,15.34-.52s10.72.26,14.86.52c-1.21-14.66-1.71-38.83-1.71-54.52v-9c0-22.12,7.8-38.32,25.08-38.32"/>
    </g>
  </g>
</svg>